# xmcd
#
# Track frame offsets:
#	150
#	20802
#	35516
#	46098
#	63961
#	79290
#	99838
#	129875
#	152583
#	175247
#	188610
#	205103
#	217978
#	233441
#
# Disc length: 3367 seconds
# Revision: 0
# Processed by: cddbd v1.5.2PL0 Copyright (c) Steve Scherf et al.
# Submitted via: dBpowerAMP V12.0
#
DISCID=a60d250e
DTITLE=Chris O'Connor - I Asked For Water
DYEAR=2017
DGENRE=Blues Traditional
TTITLE0=Things About Coming My Way
TTITLE1=Memphis Town
TTITLE2=Dry Land Blues
TTITLE3=East St Louis
TTITLE4=When The Levee Breaks
TTITLE5=Big Road Blues
TTITLE6=One Steady Roll
TTITLE7=Cool Drink Of Water Blues
TTITLE8=Built For Comfort
TTITLE9=Baby What You Want Me To Do?
TTITLE10=Mississippi Blues
TTITLE11=Too Tight
TTITLE12=Maggie Campbell Blues
TTITLE13=Banty Blues
EXTD=
EXTT0=
EXTT1=
EXTT2=
EXTT3=
EXTT4=
EXTT5=
EXTT6=
EXTT7=
EXTT8=
EXTT9=
EXTT10=
EXTT11=
EXTT12=
EXTT13=
PLAYORDER=
